<?xml version="1.0" encoding="utf-8"?>
<!-- Generator: Adobe Illustrator 24.0.2, SVG Export Plug-In . SVG Version: 6.00 Build 0)  -->
<svg version="1.1" id="Layer_1" xmlns="http://www.w3.org/2000/svg" xmlns:xlink="http://www.w3.org/1999/xlink" x="0px" y="0px"
	 viewBox="0 0 2000 2000" style="enable-background:new 0 0 2000 2000;" xml:space="preserve">
<style type="text/css">
	.st0{fill:#FFFFFF;}
	.st1{fill:#E76C28;}
	.st2{fill:#FF7D36;}
	.st3{fill:#E76C28;stroke:#000000;stroke-miterlimit:10;}
	.st4{fill:#E6E6E6;}
	.st5{fill:#242424;}
	.st6{fill:#286FD0;}
	.st7{fill:#1C1C1C;}
	.st8{fill:#1A1A1A;}
</style>
<g>
	<g>
		<g>
			<g>
				<path class="st1" d="M1006.72,1120.8c-0.87,2.06-1.72,4.4-2.53,7.07c-7.17,23.38-22.41,100.7-22.41,100.7s-34.08,10.79-61.87,0
					c0,0,0-4.45,0.07-11.36l2.65-0.96c25.79-9.25,31.95-24.52,32.58-35.7c1.04-18.26-9.05-32.57-29.16-41.38l-1.24-0.54
					c0.89-2.28,2.25-6.09,3.9-10.85c1.45-4.16,5.37-6.97,9.79-6.97H1006.72z"/>
				<path d="M948.22,1233.83c-9.22,0-19.22-1.2-28.49-4.79l-0.32-0.12v-0.34c0,0,0-4.45,0.07-11.37l0-0.35l2.98-1.08
					c25.53-9.16,31.63-24.23,32.25-35.25c1.03-18.03-8.95-32.17-28.86-40.9l-1.68-0.74l0.17-0.45c0.83-2.13,2.11-5.68,3.9-10.83
					c1.52-4.37,5.64-7.31,10.26-7.31h68.99l-0.29,0.7c-0.88,2.08-1.73,4.44-2.52,7.02c-7.08,23.09-22.25,99.88-22.4,100.65
					l-0.06,0.29l-0.28,0.09C981.7,1229.12,966.5,1233.83,948.22,1233.83z M920.41,1228.22c25.92,9.88,57.62,0.94,60.94-0.05
					c1.04-5.26,15.5-78.05,22.36-100.45c0.71-2.33,1.47-4.48,2.26-6.42h-67.48c-4.19,0-7.94,2.67-9.31,6.63
					c-1.67,4.82-2.9,8.24-3.74,10.42l0.8,0.35c20.33,8.91,30.52,23.39,29.46,41.87c-0.64,11.33-6.87,26.8-32.91,36.14l-2.32,0.84
					C920.42,1223.16,920.41,1227.08,920.41,1228.22z"/>
			</g>
			<path d="M948.21,1234.24c-9.27,0-19.32-1.2-28.64-4.82l-0.58-0.22v-0.63c0,0,0-4.45,0.07-11.37l0.01-0.64l3.25-1.17
				c25.31-9.08,31.36-23.98,31.97-34.89c1.02-17.84-8.87-31.84-28.62-40.49l-2.04-0.9l0.32-0.82c0.82-2.12,2.1-5.65,3.89-10.82
				c1.58-4.54,5.86-7.59,10.65-7.59h69.61l-0.54,1.27c-0.87,2.06-1.72,4.41-2.5,6.98c-7.07,23.06-22.23,99.83-22.39,100.61
				l-0.1,0.53l-0.52,0.16C981.83,1229.51,966.57,1234.24,948.21,1234.24z M920.82,1227.94c25.22,9.47,55.84,1.17,60.17-0.09
				c1.38-6.95,15.54-78.12,22.32-100.25c0.65-2.12,1.34-4.09,2.05-5.89h-66.87c-4.02,0-7.6,2.56-8.92,6.36
				c-1.59,4.57-2.77,7.88-3.6,10.07l0.44,0.19c20.5,8.99,30.77,23.61,29.71,42.27c-0.65,11.45-6.93,27.09-33.18,36.51l-2.05,0.74
				C920.84,1222.9,920.83,1226.54,920.82,1227.94z"/>
		</g>
		<g>
			<g>
				<path class="st1" d="M919.91,1237.91c0,0-28.92,17.31-27.12,35.96s70.16,10.11,80.48,9.22s17.93-19.55,7.85-45.18
					C981.1,1237.91,949.05,1252.29,919.91,1237.91z"/>
				<path d="M930.88,1286.31c-14.76,0-29.06-1.48-35.29-6.59c-1.99-1.63-3.1-3.58-3.31-5.8c-1.8-18.75,26.17-35.73,27.37-36.44
					l0.23-0.14l0.25,0.12c28.6,14.12,60.45,0.13,60.77-0.01l0.48-0.21l0.19,0.49c7.24,18.38,5.15,32.46,0.79,39.51
					c-2.35,3.79-5.56,6.04-9.06,6.35c-0.82,0.07-2.02,0.19-3.52,0.34C962.03,1284.71,946.21,1286.3,930.88,1286.31z M919.93,1238.48
					c-2.71,1.69-28.31,18.09-26.65,35.34c0.19,1.95,1.18,3.67,2.95,5.12c12.37,10.16,58.34,5.51,73.45,3.99
					c1.51-0.15,2.71-0.27,3.54-0.35c3.17-0.28,6.12-2.36,8.29-5.88c4.2-6.78,6.2-20.34-0.68-38.14
					C976.69,1240.27,946.94,1251.65,919.93,1238.48z"/>
			</g>
			<path d="M930.95,1286.71c-14.86,0-29.3-1.5-35.62-6.68c-2.07-1.7-3.24-3.75-3.46-6.08c-1.83-19.01,26.36-36.11,27.57-36.83
				l0.43-0.26l0.45,0.22c28.4,14.02,60.1,0.13,60.42-0.01l0.87-0.39l0.35,0.89c7.29,18.52,5.17,32.75,0.76,39.88
				c-2.42,3.9-5.74,6.22-9.37,6.54c-0.82,0.07-2.01,0.19-3.5,0.34C962.09,1285.12,946.3,1286.71,930.95,1286.71z M919.96,1238.95
				c-3.51,2.21-27.87,18.17-26.27,34.83c0.18,1.86,1.09,3.44,2.8,4.84c12.25,10.05,58.09,5.42,73.16,3.89
				c1.5-0.15,2.7-0.27,3.53-0.34c3.04-0.26,5.87-2.28,7.98-5.68c4.12-6.65,6.08-19.91-0.56-37.38
				C975.2,1241.27,946.32,1251.68,919.96,1238.95z"/>
		</g>
	</g>
	<g>
		<path class="st0" d="M1084.89,920.35c-22.08,21.13-52,34.12-84.9,34.12c-32.89,0-62.82-12.99-84.89-34.12
			c3.95-1.61,8.16-3.19,12.57-4.65c19.43,16.73,44.72,26.87,72.32,26.87c27.61,0,52.9-10.13,72.33-26.87
			C1076.74,917.17,1080.95,918.75,1084.89,920.35z"/>
		<path d="M999.99,955.39c-31.99,0-62.36-12.21-85.52-34.37l-1.02-0.97l1.31-0.53c4.21-1.71,8.45-3.29,12.63-4.67l0.49-0.16
			l0.39,0.34c19.95,17.18,45.42,26.65,71.72,26.65c26.31,0,51.78-9.46,71.73-26.65l0.39-0.34l0.49,0.16
			c4.07,1.36,8.2,2.88,12.62,4.67l1.31,0.53l-1.02,0.98C1062.35,943.18,1031.98,955.39,999.99,955.39z M916.77,920.67
			c22.68,21.22,52.18,32.89,83.23,32.89c31.04,0,60.54-11.67,83.23-32.89c-3.71-1.48-7.23-2.77-10.7-3.94
			c-20.22,17.25-45.96,26.75-72.53,26.75c-26.56,0-52.3-9.5-72.52-26.75C923.93,917.92,920.34,919.24,916.77,920.67z"/>
	</g>
	<g>
		<g>
			<path class="st1" d="M1000,942.57c-27.6,0-52.89-10.13-72.32-26.87c2.01-0.67,4.07-1.34,6.17-1.95c4.14-1.24,8.43-2.36,12.8-3.29
				c17.27-3.75,36.01-4.8,53.36,0.49c17.34-5.28,36.09-4.24,53.36-0.5c4.38,0.95,8.67,2.07,12.81,3.31c2.1,0.62,4.15,1.27,6.17,1.95
				C1052.89,932.43,1027.6,942.57,1000,942.57z"/>
			<path d="M1000,943.07c-26.64,0-52.44-9.58-72.64-26.99l-0.67-0.57l0.83-0.28c2.4-0.8,4.36-1.42,6.18-1.95
				c4.34-1.3,8.66-2.41,12.83-3.3c20.06-4.36,38.05-4.2,53.46,0.46c15.4-4.66,33.39-4.81,53.46-0.47c4.21,0.91,8.53,2.02,12.85,3.31
				c2,0.59,4.08,1.25,6.18,1.95l0.83,0.28l-0.67,0.57C1052.44,933.48,1026.64,943.07,1000,943.07z M928.67,915.89
				c19.92,16.88,45.22,26.17,71.32,26.17c26.11,0,51.41-9.29,71.33-26.17c-1.8-0.59-3.59-1.15-5.31-1.66
				c-4.3-1.29-8.59-2.39-12.77-3.3c-19.97-4.33-37.84-4.16-53.1,0.49l-0.15,0.04l-0.15-0.04c-15.28-4.66-33.14-4.82-53.1-0.48
				c-4.15,0.89-8.44,1.99-12.76,3.29C932.39,914.69,930.68,915.23,928.67,915.89z"/>
		</g>
		<path d="M999.99,943.48c-26.74,0-52.63-9.62-72.91-27.09l-1.22-1.05l1.52-0.51c2.39-0.8,4.36-1.42,6.2-1.96
			c4.37-1.31,8.7-2.42,12.86-3.31c20.08-4.36,38.1-4.22,53.55,0.43c15.44-4.65,33.46-4.79,53.55-0.44c4.2,0.91,8.53,2.02,12.88,3.32
			c2.11,0.62,4.17,1.28,6.19,1.96l1.52,0.51l-1.22,1.05C1052.64,933.86,1026.74,943.48,999.99,943.48z M929.51,916.05
			c19.76,16.52,44.73,25.6,70.49,25.6c25.77,0,50.74-9.08,70.5-25.6c-1.51-0.49-3.04-0.97-4.59-1.43c-4.3-1.29-8.59-2.39-12.74-3.29
			c-19.9-4.31-37.7-4.15-52.9,0.48l-0.27,0.08l-0.27-0.08c-15.21-4.64-33-4.79-52.89-0.47c-4.12,0.88-8.4,1.98-12.73,3.28
			C932.69,915.04,931.21,915.5,929.51,916.05z"/>
	</g>
	<g>
		<g>
			<path class="st1" d="M1060.14,958.05c-2.4,3.04-3.16,7.06-2.08,10.79c7.04,23.75,11.54,53.77,13.75,71.27
				c-2.08,11.1-3.25,22.49-2.25,33.35c-0.97,1.41-1.96,2.72-2.91,3.84c-0.35,0.42-0.69,0.82-0.99,1.26h-16.09v-80.12
				c0-12.1-9.84-21.94-21.94-21.94h-55.25c-12.1,0-21.94,9.84-21.94,21.94v80.12h-16.07c-0.33-0.44-0.66-0.84-1.01-1.26
				c-0.93-1.1-1.88-2.38-2.83-3.73c1.61-13.9,0.95-28.65-1.12-42.62c2.49-17.68,6.62-42.13,12.52-62.13
				c1.1-3.71,0.33-7.73-2.07-10.79c-0.53-0.66-1.04-1.3-1.59-1.97c-4.55-5.45-8.98-9.16-13.15-11.01
				c-15.67-6.95-25.73-11.61-31.83-14.5c4.31-2.3,9.87-5.08,16.38-7.92c1.74-0.77,3.57-1.52,5.43-2.29
				c22.07,21.14,52,34.12,84.89,34.12s62.81-12.98,84.89-34.12c1.87,0.77,3.68,1.52,5.43,2.29c6.51,2.83,12.07,5.61,16.38,7.92
				c-6.13,2.91-16.16,7.57-31.87,14.5c-4.15,1.85-8.56,5.56-13.15,11.04C1061.18,956.73,1060.65,957.37,1060.14,958.05z"/>
			<path d="M1065.93,1079.06h-16.86v-80.62c0-11.82-9.62-21.44-21.44-21.44h-55.25c-11.82,0-21.44,9.62-21.44,21.44v80.62h-16.82
				l-0.15-0.2c-0.32-0.43-0.65-0.83-0.99-1.24c-0.84-0.99-1.75-2.18-2.86-3.76l-0.11-0.16l0.02-0.19
				c1.49-12.83,1.1-27.52-1.11-42.49l-0.01-0.07l0.01-0.07c2.42-17.18,6.55-41.92,12.54-62.2c1.05-3.55,0.31-7.42-1.98-10.34
				l-1.58-1.97c-4.51-5.4-8.87-9.05-12.96-10.86c-12.56-5.57-23.27-10.45-31.84-14.5l-0.9-0.42l0.88-0.47
				c5.3-2.83,10.82-5.5,16.42-7.93c1.67-0.74,3.39-1.45,5.21-2.2l0.53-0.22l0.24,0.22c22.88,21.91,52.91,33.98,84.55,33.98
				c31.63,0,61.65-12.07,84.55-33.98l0.24-0.22l0.3,0.12c1.87,0.77,3.68,1.52,5.44,2.29c5.59,2.44,11.12,5.1,16.42,7.93l0.88,0.47
				l-0.9,0.43c-8.72,4.14-19.44,9.02-31.88,14.5c-4.06,1.81-8.42,5.47-12.96,10.91l-0.41,0.51c-0.38,0.46-0.75,0.93-1.12,1.42
				l-0.01,0.01c-2.29,2.9-3.03,6.76-2,10.34c7.2,24.29,11.71,55.13,13.77,71.35l0.01,0.08l-0.01,0.08
				c-2.4,12.76-3.13,23.62-2.24,33.21l0.02,0.18l-0.1,0.15c-1.03,1.49-2.02,2.8-2.94,3.88l-0.16,0.19c-0.29,0.35-0.56,0.68-0.8,1.03
				L1065.93,1079.06z M1050.07,1078.06h15.33c0.22-0.31,0.47-0.6,0.71-0.89l0.16-0.19c0.87-1.03,1.81-2.25,2.78-3.66
				c-0.87-9.62-0.13-20.49,2.26-33.23c-2.05-16.21-6.56-46.93-13.72-71.12c-1.13-3.89-0.31-8.08,2.17-11.23
				c0.38-0.5,0.76-0.97,1.14-1.45l0.42-0.52c4.65-5.56,9.13-9.32,13.33-11.19c12.01-5.3,22.42-10.03,30.96-14.07
				c-5.01-2.64-10.21-5.14-15.47-7.43c-1.66-0.72-3.37-1.43-5.12-2.16c-23.05,21.95-53.23,34.03-85,34.03
				c-31.79,0-61.97-12.08-85-34.03c-1.79,0.74-3.48,1.43-5.12,2.16c-5.26,2.29-10.46,4.79-15.47,7.43
				c8.41,3.97,18.81,8.7,30.92,14.07c4.23,1.87,8.71,5.62,13.33,11.14l1.6,1.98c2.49,3.18,3.3,7.38,2.16,11.24
				c-5.96,20.19-10.09,44.84-12.5,61.99c2.21,14.96,2.6,29.64,1.13,42.49c1.04,1.47,1.9,2.6,2.7,3.54c0.3,0.37,0.59,0.72,0.87,1.09
				h15.32v-79.62c0-12.37,10.07-22.44,22.44-22.44h55.25c12.37,0,22.44,10.07,22.44,22.44V1078.06z"/>
		</g>
		<path d="M1066.15,1079.48h-17.5v-81.04c0-11.59-9.43-21.03-21.03-21.03h-55.25c-11.59,0-21.03,9.43-21.03,21.03v81.04H933.9
			l-0.27-0.37c-0.32-0.43-0.64-0.82-0.98-1.23c-0.84-0.99-1.79-2.23-2.88-3.79l-0.2-0.28l0.04-0.35c1.48-12.79,1.1-27.45-1.11-42.38
			l-0.02-0.13l0.02-0.13c2.42-17.2,6.56-41.97,12.55-62.26c1.01-3.42,0.3-7.15-1.91-9.97l-1.58-1.96
			c-4.47-5.34-8.78-8.96-12.81-10.75c-12.54-5.56-23.26-10.44-31.85-14.51l-1.64-0.78l1.6-0.86c5.29-2.83,10.83-5.5,16.45-7.95
			c1.67-0.74,3.42-1.46,5.21-2.2l0.79-0.32l0.43,0.41c22.8,21.84,52.73,33.87,84.26,33.87c31.52,0,61.44-12.03,84.26-33.87
			l0.43-0.41l0.55,0.23c1.87,0.77,3.69,1.52,5.45,2.29c5.63,2.45,11.16,5.12,16.45,7.95l1.6,0.86l-1.64,0.78
			c-8.7,4.13-19.43,9.01-31.89,14.51c-4,1.78-8.31,5.41-12.81,10.8l-0.39,0.49c-0.38,0.47-0.76,0.94-1.14,1.43l-0.01,0.01
			c-2.2,2.79-2.92,6.52-1.92,9.97c7.21,24.32,11.73,55.18,13.78,71.41l0.02,0.14l-0.03,0.14c-2.39,12.72-3.12,23.55-2.24,33.1
			l0.03,0.33l-0.19,0.27c-1.04,1.5-2.03,2.82-2.96,3.91l-0.12,0.15c-0.28,0.34-0.56,0.67-0.8,1.03L1066.15,1079.48z
			 M1050.48,1077.65h14.71c0.2-0.26,0.41-0.52,0.63-0.78l0.13-0.15c0.84-0.99,1.74-2.16,2.67-3.5c-0.85-9.6-0.11-20.45,2.26-33.13
			c-2.05-16.21-6.55-46.86-13.7-70.99c-1.16-4.02-0.32-8.35,2.24-11.6c0.38-0.51,0.78-0.99,1.16-1.47l0.4-0.5
			c4.7-5.61,9.23-9.41,13.49-11.31c11.67-5.15,21.82-9.76,30.2-13.71c-4.76-2.49-9.69-4.85-14.71-7.03
			c-1.58-0.69-3.2-1.36-4.87-2.05c-23.11,21.9-53.3,33.96-85.09,33.96c-31.81,0-62.01-12.06-85.1-33.96
			c-1.67,0.69-3.3,1.36-4.86,2.05c-5.01,2.18-9.95,4.55-14.71,7.04c8.29,3.9,18.43,8.51,30.16,13.71c4.29,1.9,8.82,5.69,13.48,11.26
			l1.6,1.99c2.58,3.29,3.41,7.63,2.23,11.62c-5.95,20.14-10.07,44.73-12.48,61.87c2.2,14.91,2.59,29.55,1.14,42.38
			c0.97,1.38,1.82,2.48,2.58,3.38c0.26,0.32,0.51,0.63,0.76,0.94h14.71v-79.21c0-12.6,10.25-22.86,22.86-22.86h55.25
			c12.6,0,22.86,10.25,22.86,22.86V1077.65z"/>
	</g>
	<g>
		<g>
			<path class="st0" d="M1000,736.42c-52.57,0-95.18,42.61-95.18,95.18c0,32.8,16.59,61.72,41.83,78.85h0.01
				c15.21,10.32,33.58,16.34,53.34,16.34c19.77,0,38.13-6.02,53.36-16.35h0.01c25.24-17.13,41.83-46.05,41.83-78.84
				C1095.19,779.03,1052.57,736.42,1000,736.42z"/>
			<path d="M1000,927.8c-19.24,0-37.78-5.65-53.65-16.34h0l-0.26-0.17c-26.47-17.97-42.27-47.76-42.27-79.68
				c0-53.04,43.15-96.18,96.18-96.18c53.04,0,96.2,43.15,96.2,96.18c0,31.93-15.8,61.71-42.27,79.67l-0.27,0.17
				C1037.78,922.14,1019.23,927.8,1000,927.8z M946.97,909.47l0.24,0.16c15.59,10.58,33.85,16.17,52.78,16.17
				c18.94,0,37.19-5.6,52.79-16.18l0.26-0.17c25.77-17.6,41.14-46.68,41.14-77.84c0-51.93-42.26-94.18-94.2-94.18
				c-51.93,0-94.18,42.25-94.18,94.18C905.81,862.77,921.19,891.86,946.97,909.47z"/>
		</g>
	</g>
	<path class="st3" d="M1000,746.67c-44.85,0-81.21,36.36-81.21,81.2c0,44.85,36.36,51.39,81.21,51.39s81.21-6.53,81.21-51.39
		C1081.21,783.03,1044.85,746.67,1000,746.67z M933.94,813.41c-1.03,4.72-1.55,9.59-1.55,14.46c0,1.51-1.22,2.72-2.72,2.72
		c-1.51,0-2.72-1.21-2.72-2.72c0-5.26,0.57-10.53,1.67-15.62c0.33-1.47,1.78-2.39,3.24-2.08
		C933.33,810.5,934.26,811.94,933.94,813.41z M1000,760.26c-24.79,0-47.57,13.57-59.46,35.43c-0.49,0.91-1.42,1.42-2.38,1.42
		c-0.45,0-0.89-0.11-1.3-0.34c-1.32-0.72-1.81-2.36-1.09-3.69c12.83-23.61,37.45-38.26,64.23-38.26c1.5,0,2.72,1.21,2.72,2.72
		C1002.71,759.04,1001.5,760.26,1000,760.26z M1013.06,770.35c3.25,2.65,3.74,2.65,7,0c-2.65,3.26-2.65,3.75,0,7
		c-3.26-2.65-3.75-2.65-7,0C1015.71,774.1,1015.71,773.61,1013.06,770.35z M1046.96,812.82c-14.79-12.05-17.01-12.05-31.79,0
		c12.05-14.79,12.05-17.01,0-31.79c14.79,12.05,17.01,12.05,31.79,0C1034.91,795.82,1034.91,798.03,1046.96,812.82z M1054.61,808.39
		c-3.25-2.65-3.74-2.65-7,0c2.65-3.25,2.65-3.74,0-7c3.26,2.65,3.75,2.65,7,0C1051.96,804.65,1051.96,805.14,1054.61,808.39z"/>
	<g>
		<g>
			<path class="st1" d="M1133.31,822.82l-3.32-24.44c-0.95-6.99-6.24-12.6-13.17-13.95l-10.23-2
				c-18.64-40.24-59.41-68.22-106.59-68.22s-87.95,27.98-106.59,68.22l-10.23,2c-6.92,1.35-12.22,6.96-13.17,13.95l-3.32,24.44
				c-1.35,9.89,6.35,18.7,16.33,18.7h10.92c-0.3-3.27-0.47-6.57-0.47-9.91c0-58.74,47.79-106.53,106.53-106.53
				c58.74,0,106.53,47.79,106.53,106.53c0,3.34-0.16,6.65-0.47,9.91h10.92C1126.97,841.52,1134.66,832.71,1133.31,822.82z"/>
			<path d="M1116.98,842.02h-11.46l0.05-0.55c0.31-3.31,0.46-6.63,0.46-9.87c0-58.46-47.57-106.03-106.03-106.03
				S893.97,773.14,893.97,831.6c0,3.24,0.16,6.56,0.46,9.87l0.05,0.55h-11.46c-4.9,0-9.57-2.12-12.79-5.81
				c-3.23-3.69-4.7-8.6-4.04-13.46l3.32-24.44c0.98-7.2,6.43-12.98,13.57-14.38l9.99-1.95c19.33-41.49,61.27-68.27,106.93-68.27
				s87.61,26.79,106.93,68.27l9.99,1.95c7.13,1.4,12.59,7.17,13.57,14.38l3.32,24.44c0.66,4.86-0.81,9.76-4.04,13.46
				C1126.55,839.9,1121.89,842.02,1116.98,842.02z M1106.61,841.02h10.37c4.62,0,9-1.99,12.04-5.47c3.04-3.48,4.42-8.09,3.8-12.67
				l-3.32-24.44c-0.92-6.78-6.05-12.22-12.77-13.53l-10.49-2.05l-0.11-0.23c-19.12-41.26-60.78-67.93-106.13-67.93
				s-87.02,26.66-106.13,67.93l-0.11,0.23l-10.49,2.05c-6.71,1.31-11.84,6.75-12.77,13.53l-3.32,24.44
				c-0.62,4.57,0.76,9.19,3.8,12.67c3.04,3.48,7.42,5.47,12.04,5.47h10.37c-0.28-3.16-0.42-6.32-0.42-9.41
				c0-59.02,48.01-107.03,107.03-107.03s107.03,48.01,107.03,107.03C1107.03,834.69,1106.89,837.86,1106.61,841.02z"/>
		</g>
		<path d="M1116.98,842.43h-11.92l0.09-1c0.31-3.3,0.46-6.6,0.46-9.83c0-58.24-47.38-105.62-105.62-105.62
			c-58.24,0-105.62,47.38-105.62,105.62c0,3.22,0.16,6.53,0.46,9.83l0.09,1h-11.92c-5.02,0-9.8-2.17-13.1-5.95
			c-3.3-3.78-4.81-8.81-4.13-13.79l3.32-24.44c1-7.38,6.59-13.3,13.9-14.73l9.78-1.91c19.44-41.52,61.47-68.32,107.22-68.32
			c45.75,0,87.78,26.8,107.22,68.32l9.78,1.91c7.31,1.43,12.89,7.35,13.9,14.73l3.32,24.44c0.68,4.98-0.83,10-4.13,13.79
			C1126.78,840.26,1122,842.43,1116.98,842.43z M1107.06,840.6h9.92c4.49,0,8.77-1.94,11.72-5.33c2.96-3.39,4.31-7.88,3.7-12.34
			l-3.32-24.44c-0.9-6.6-5.89-11.9-12.43-13.18l-10.69-2.09l-0.2-0.42c-19.05-41.12-60.56-67.69-105.76-67.69
			c-45.2,0-86.71,26.57-105.76,67.69l-0.2,0.42l-10.69,2.09c-6.54,1.28-11.54,6.58-12.43,13.18l-3.32,24.44
			c-0.61,4.46,0.74,8.95,3.7,12.34c2.96,3.39,7.23,5.33,11.72,5.33h9.92c-0.25-3.02-0.38-6.04-0.38-9
			c0-59.25,48.2-107.45,107.45-107.45s107.45,48.2,107.45,107.45C1107.45,834.56,1107.32,837.58,1107.06,840.6z"/>
	</g>
	<ellipse class="st4" cx="1000" cy="900.31" rx="36.32" ry="10.64"/>
	<g>
		<g>
			<path class="st1" d="M883.94,1055.39l28.19-0.78c4.01-0.11,7.33-3.17,7.78-7.15c1.74-15.19,6.58-52.23,15.01-80.7
				c0.42-1.44,0.14-3-0.8-4.19c-0.49-0.62-0.98-1.23-1.47-1.82c-4.79-5.75-8.35-8.07-10.47-9.01
				c-17.94-7.93-28.59-12.92-34.68-15.87c-2.73-1.33-5.97,0.27-6.57,3.25c-1.12,5.58-2.44,12.61-3.68,20.56l0.8,0.29
				c30.48,10.95,31.08,19.17,31.28,21.85c0.89,12.2-5.6,45.78-5.67,46.1c-0.32,1.66-1.3,3.96-4.17,5.59
				c-6.43,3.65-18.66,1.16-26.22-1.61c0.53,6,1.37,11.79,2.58,17.23C876.68,1052.89,880.09,1055.49,883.94,1055.39z"/>
			<path d="M883.72,1055.89c-4,0-7.49-2.76-8.35-6.65c-1.18-5.28-2.05-11.1-2.59-17.3l-0.07-0.79l0.74,0.27
				c6.47,2.38,19.18,5.4,25.8,1.65c2.7-1.53,3.62-3.7,3.92-5.25c0.07-0.33,6.55-33.78,5.66-45.97c-0.19-2.62-0.78-10.58-30.95-21.42
				l-1.19-0.44l0.06-0.41c1.05-6.72,2.26-13.45,3.69-20.58c0.32-1.57,1.32-2.88,2.75-3.59c1.44-0.71,3.08-0.71,4.53-0.01
				c5.76,2.79,16.45,7.81,34.66,15.86c2.19,0.98,5.82,3.36,10.65,9.15c0.49,0.59,0.99,1.2,1.48,1.83c1.03,1.31,1.36,3.04,0.89,4.64
				c-8.46,28.58-13.3,65.9-14.99,80.62c-0.48,4.21-4.04,7.47-8.27,7.59l-28.19,0.78C883.87,1055.89,883.79,1055.89,883.72,1055.89z
				 M873.84,1032.64c0.54,5.87,1.38,11.38,2.5,16.39c0.77,3.5,3.97,5.98,7.58,5.86l28.19-0.78c3.74-0.1,6.88-2.99,7.3-6.71
				c1.69-14.75,6.55-52.14,15.02-80.79c0.38-1.29,0.11-2.69-0.72-3.74c-0.49-0.62-0.98-1.22-1.46-1.81
				c-4.71-5.65-8.19-7.94-10.29-8.88c-18.22-8.05-28.92-13.08-34.69-15.88c-1.16-0.57-2.49-0.56-3.65,0.01
				c-1.15,0.57-1.96,1.62-2.22,2.89c-1.4,6.97-2.58,13.56-3.62,20.13l0.42,0.15c30.78,11.06,31.4,19.51,31.61,22.29
				c0.9,12.32-5.61,45.91-5.68,46.24c-0.34,1.75-1.39,4.21-4.41,5.92C893.06,1037.74,880.67,1035.02,873.84,1032.64z"/>
		</g>
		<path d="M883.72,1056.31c-4.2,0-7.86-2.9-8.76-6.98c-1.18-5.29-2.05-11.13-2.6-17.35l-0.13-1.44l1.35,0.5
			c8.58,3.15,19.78,4.89,25.45,1.68c2.56-1.45,3.44-3.5,3.72-4.97c0.07-0.33,6.53-33.77,5.65-45.86
			c-0.5-6.84-10.83-13.93-30.68-21.06l-1.51-0.55l0.12-0.74c1.05-6.75,2.26-13.49,3.69-20.6c0.34-1.7,1.43-3.11,2.98-3.88
			c1.55-0.77,3.33-0.77,4.89-0.01c5.73,2.78,16.39,7.79,34.64,15.85c2.23,0.99,5.92,3.41,10.8,9.27c0.49,0.6,0.99,1.21,1.48,1.84
			c1.11,1.41,1.47,3.29,0.96,5.02c-8.45,28.55-13.29,65.84-14.97,80.55c-0.51,4.42-4.23,7.84-8.67,7.96l-28.19,0.78
			C883.88,1056.31,883.8,1056.31,883.72,1056.31z M874.32,1033.24c0.54,5.61,1.36,10.88,2.43,15.7c0.73,3.3,3.7,5.62,7.16,5.54
			l28.19-0.78c3.53-0.1,6.5-2.82,6.9-6.34c1.69-14.76,6.55-52.17,15.04-80.86c0.34-1.16,0.1-2.42-0.64-3.37
			c-0.49-0.62-0.97-1.22-1.45-1.8c-4.66-5.59-8.08-7.85-10.14-8.76c-18.28-8.08-28.96-13.1-34.7-15.88
			c-1.05-0.51-2.24-0.51-3.28,0.01c-1.04,0.51-1.77,1.46-1.99,2.6c-1.37,6.83-2.54,13.3-3.56,19.78l0.1,0.04
			c31.03,11.15,31.67,19.8,31.88,22.65c0.9,12.33-5.62,46.02-5.68,46.35c-0.36,1.84-1.45,4.41-4.62,6.2
			C893.69,1037.85,882.54,1036.04,874.32,1033.24z"/>
	</g>
	<g>
		<g>
			<path class="st1" d="M912.32,1062.09c1.7-0.05,3.27,0.85,4.09,2.34c2.23,4.09,6.98,12.43,11.36,17.6
				c5.98,7.05,5.43,15.42-2.42,11.43c-7.85-3.99-14.02-11.64-14.02-11.64s-6.34,13.18-3.41,19.68c2.93,6.5-0.08,14.84-14.56,10.56
				c-14.49-4.28-22.53-15.17-19.64-23.88c2.09-6.29,4.78-16.62,6.11-21.88c0.5-1.95,2.23-3.34,4.24-3.39L912.32,1062.09z"/>
			<path d="M900.46,1113.74c-1.95,0-4.33-0.35-7.23-1.2c-8.7-2.57-15.53-7.59-18.76-13.76c-1.91-3.66-2.33-7.38-1.21-10.76
				c2.06-6.2,4.71-16.35,6.1-21.84c0.55-2.16,2.48-3.71,4.71-3.77l28.25-0.81c1.87-0.01,3.63,0.94,4.54,2.6
				c2.38,4.37,7.01,12.45,11.31,17.51c3.75,4.42,5.21,9.75,3.33,12.12c-0.7,0.88-2.45,2.06-6.36,0.07
				c-6.55-3.33-12.01-9.25-13.67-11.16c-1.24,2.8-5.51,13.18-3.08,18.55c1.64,3.62,1.37,7.34-0.69,9.71
				C906.47,1112.39,904.3,1113.74,900.46,1113.74z M912.34,1062.59l-28.25,0.81c-1.78,0.05-3.33,1.29-3.77,3.02
				c-1.4,5.51-4.06,15.69-6.12,21.91c-1.03,3.11-0.63,6.56,1.15,9.98c3.06,5.85,9.84,10.81,18.16,13.26
				c6.33,1.87,11.1,1.43,13.43-1.23c1.8-2.07,2.01-5.38,0.54-8.64c-3-6.63,3.15-19.56,3.42-20.11l0.34-0.71l0.5,0.62
				c0.06,0.08,6.2,7.62,13.86,11.51c2.43,1.23,4.25,1.3,5.12,0.2c1.37-1.73,0.49-6.37-3.31-10.86c-4.35-5.13-9.02-13.28-11.42-17.68
				C915.25,1063.34,913.87,1062.55,912.34,1062.59L912.34,1062.59z"/>
		</g>
		<path d="M900.45,1114.15c-1.99,0-4.41-0.35-7.35-1.22c-8.8-2.6-15.73-7.69-19.01-13.97c-1.97-3.76-2.4-7.59-1.24-11.08
			c2.05-6.19,4.7-16.32,6.1-21.82c0.59-2.33,2.69-4.01,5.1-4.08l28.25-0.81c2.12-0.05,3.94,1.02,4.92,2.82
			c2.37,4.35,6.99,12.41,11.26,17.44c3.94,4.64,5.37,10.08,3.34,12.65c-0.77,0.98-2.7,2.31-6.87,0.18
			c-6.21-3.16-11.31-8.46-13.36-10.76c-1.46,3.41-5.03,12.72-2.82,17.61c1.7,3.77,1.41,7.66-0.76,10.15
			C906.72,1112.74,904.45,1114.15,900.45,1114.15z M912.35,1063l-28.25,0.81c-1.6,0.05-2.99,1.16-3.38,2.71
			c-1.4,5.52-4.06,15.7-6.13,21.94c-1,3-0.61,6.34,1.12,9.66c3.01,5.75,9.7,10.63,17.91,13.06c6.17,1.82,10.78,1.43,13-1.11
			c1.69-1.95,1.88-5.09,0.47-8.2c-3.07-6.81,3.15-19.9,3.42-20.46l0.63-1.3l0.91,1.12c0.06,0.07,6.15,7.55,13.72,11.4
			c2.2,1.12,3.88,1.23,4.61,0.31c1.27-1.61,0.25-6.14-3.3-10.33c-4.37-5.16-9.06-13.33-11.47-17.75
			C914.96,1063.68,913.69,1062.93,912.35,1063L912.35,1063z"/>
	</g>
	<g>
		<path class="st0" d="M872.91,1027.07c9.82,4.19,25.29,6.17,26.49,0.03c1.66-8.44,6.31-35.17,5.6-44.95
			c-0.52-7.14-18.68-14.59-28.41-18.08C873.82,982.85,871.62,1005.92,872.91,1027.07z"/>
		<path d="M890.83,1031.9c-5.68,0-12.85-1.67-18.28-3.99l-0.52-0.22l-0.03-0.56c-1.09-17.9,0.15-39.16,3.68-63.2l0.16-1.11
			l1.05,0.38c12.95,4.65,28.49,11.7,29.01,18.88c0.72,9.86-3.93,36.6-5.61,45.19c-0.28,1.43-1.17,2.56-2.66,3.35
			C895.95,1031.51,893.57,1031.9,890.83,1031.9z M873.79,1026.45c7.67,3.15,18.55,4.91,22.99,2.56c0.99-0.53,1.55-1.21,1.72-2.08
			c1.67-8.53,6.29-35.05,5.58-44.71c-0.34-4.67-10.07-10.81-26.75-16.91C873.97,988.5,872.78,1009.07,873.79,1026.45z"/>
	</g>
	<g>
		<g>
			<circle class="st1" cx="885.8" cy="984.19" r="3.96"/>
			<path d="M885.81,988.65c-1.56,0-3.07-0.81-3.89-2.26v0c-1.21-2.14-0.46-4.87,1.68-6.08c2.14-1.22,4.87-0.46,6.08,1.68
				c1.21,2.14,0.46,4.87-1.68,6.08C887.31,988.46,886.55,988.65,885.81,988.65z M882.79,985.89c0.46,0.8,1.2,1.38,2.09,1.63
				c0.89,0.25,1.82,0.13,2.63-0.32c1.66-0.94,2.25-3.06,1.31-4.72c-0.46-0.8-1.2-1.38-2.09-1.63c-0.89-0.25-1.82-0.13-2.63,0.32
				c-0.8,0.46-1.38,1.2-1.63,2.09C882.22,984.16,882.33,985.09,882.79,985.89L882.79,985.89z"/>
		</g>
		<g>
			<circle class="st1" cx="884.16" cy="1017.49" r="3.96"/>
			<path d="M884.17,1021.95c-1.56,0-3.07-0.81-3.89-2.26v0c-1.21-2.14-0.46-4.87,1.68-6.08c2.14-1.21,4.87-0.46,6.08,1.68
				c0.59,1.04,0.74,2.24,0.42,3.39c-0.32,1.15-1.06,2.1-2.1,2.69C885.67,1021.77,884.91,1021.95,884.17,1021.95z M884.15,1014.03
				c-0.58,0-1.16,0.14-1.7,0.45c-0.8,0.46-1.38,1.2-1.63,2.09c-0.25,0.89-0.13,1.82,0.32,2.63v0c0.46,0.8,1.2,1.38,2.09,1.63
				c0.89,0.25,1.82,0.13,2.63-0.32c0.8-0.46,1.38-1.2,1.63-2.09c0.25-0.89,0.13-1.83-0.32-2.63
				C886.53,1014.66,885.36,1014.03,884.15,1014.03z"/>
		</g>
	</g>
	<g>
		<g>
			<path class="st1" d="M1116.06,1055.39l-28.19-0.78c-4.01-0.11-7.33-3.17-7.78-7.15c-1.74-15.19-6.58-52.23-15.01-80.7
				c-0.42-1.44-0.14-3,0.8-4.19c0.49-0.62,0.98-1.23,1.47-1.82c4.79-5.75,8.35-8.07,10.47-9.01c17.94-7.93,28.59-12.92,34.68-15.87
				c2.73-1.33,5.97,0.27,6.57,3.25c1.12,5.58,2.44,12.61,3.68,20.56l-0.8,0.29c-30.48,10.95-31.08,19.17-31.28,21.85
				c-0.89,12.2,5.6,45.78,5.67,46.1c0.32,1.66,1.3,3.96,4.17,5.59c6.43,3.65,18.66,1.16,26.22-1.61c-0.53,6-1.37,11.79-2.58,17.23
				C1123.31,1052.89,1119.9,1055.49,1116.06,1055.39z"/>
			<path d="M1116.28,1055.89c-0.08,0-0.15,0-0.23,0l-28.19-0.78c-4.23-0.12-7.79-3.38-8.27-7.59c-1.69-14.71-6.53-52.03-14.99-80.62
				c-0.47-1.6-0.14-3.34,0.89-4.64c0.49-0.63,0.99-1.24,1.47-1.83c4.84-5.8,8.46-8.18,10.65-9.15c18.21-8.05,28.9-13.07,34.66-15.86
				c1.44-0.7,3.09-0.7,4.52,0.01c1.43,0.71,2.44,2.02,2.75,3.59c1.43,7.12,2.64,13.85,3.69,20.58l0.06,0.41l-1.19,0.44
				c-30.17,10.84-30.76,18.8-30.95,21.42c-0.88,12.03,5.59,45.64,5.66,45.97c0.3,1.56,1.23,3.72,3.93,5.25
				c6.62,3.75,19.33,0.73,25.8-1.65l0.74-0.27l-0.07,0.79c-0.54,6.2-1.42,12.02-2.59,17.3
				C1123.77,1053.13,1120.28,1055.89,1116.28,1055.89z M1116.07,1054.89c3.63,0.11,6.81-2.37,7.58-5.86
				c1.12-5.02,1.96-10.53,2.5-16.39c-6.82,2.38-19.21,5.1-25.9,1.31c-3.03-1.72-4.07-4.17-4.42-5.93
				c-0.07-0.32-6.56-34.01-5.68-46.24c0.21-2.78,0.83-11.23,31.61-22.29l0.42-0.15c-1.03-6.58-2.22-13.17-3.62-20.13
				c-0.25-1.27-1.06-2.32-2.22-2.89c-1.15-0.57-2.48-0.58-3.64-0.01c-5.77,2.8-16.46,7.82-34.69,15.88
				c-2.09,0.93-5.58,3.23-10.29,8.88c-0.48,0.58-0.97,1.19-1.46,1.81c-0.83,1.05-1.09,2.45-0.71,3.74
				c8.48,28.67,13.33,66.05,15.02,80.79c0.43,3.72,3.56,6.6,7.3,6.71L1116.07,1054.89z"/>
		</g>
		<path d="M1116.27,1056.31c-0.08,0-0.16,0-0.24,0l-28.19-0.78c-4.44-0.12-8.16-3.54-8.67-7.96c-1.69-14.71-6.53-52-14.97-80.55
			c-0.51-1.73-0.15-3.61,0.96-5.02c0.49-0.63,0.99-1.24,1.48-1.83c4.89-5.86,8.57-8.27,10.8-9.27
			c18.27-8.08,28.93-13.08,34.65-15.86c1.56-0.76,3.34-0.75,4.89,0.01c1.55,0.77,2.63,2.18,2.98,3.88c1.44,7.16,2.65,13.9,3.69,20.6
			l0.12,0.74l-1.51,0.55c-19.86,7.14-30.18,14.22-30.68,21.06c-0.88,12.09,5.59,45.53,5.65,45.85c0.29,1.47,1.16,3.52,3.72,4.97
			c5.68,3.22,16.88,1.48,25.46-1.67l1.35-0.5l-0.13,1.44c-0.55,6.22-1.42,12.06-2.6,17.35
			C1124.13,1053.41,1120.47,1056.31,1116.27,1056.31z M1116.08,1054.48c3.42,0.08,6.44-2.24,7.16-5.54
			c1.07-4.82,1.89-10.09,2.43-15.7c-8.23,2.8-19.37,4.62-25.63,1.07c-3.16-1.79-4.26-4.36-4.62-6.21
			c-0.06-0.32-6.58-34.02-5.68-46.34c0.21-2.84,0.85-11.5,31.89-22.65l0.09-0.03c-1.01-6.43-2.18-12.91-3.56-19.78
			c-0.23-1.14-0.96-2.08-1.99-2.6c-1.04-0.52-2.24-0.51-3.28-0.01c-5.73,2.78-16.41,7.8-34.7,15.88c-2.05,0.91-5.48,3.18-10.14,8.77
			c-0.47,0.58-0.97,1.18-1.45,1.8c-0.75,0.95-0.99,2.21-0.64,3.37c8.49,28.68,13.34,66.1,15.04,80.86c0.4,3.52,3.37,6.24,6.9,6.34
			L1116.08,1054.48z"/>
	</g>
	<g>
		<g>
			<path class="st1" d="M1087.67,1062.09c-1.7-0.05-3.27,0.85-4.09,2.34c-2.23,4.09-6.98,12.43-11.36,17.6
				c-5.98,7.05-5.43,15.42,2.42,11.43s14.02-11.64,14.02-11.64s6.34,13.18,3.41,19.68c-2.93,6.5,0.08,14.84,14.56,10.56
				c14.49-4.28,22.53-15.17,19.64-23.88c-2.09-6.29-4.78-16.62-6.11-21.88c-0.5-1.95-2.23-3.34-4.24-3.39L1087.67,1062.09z"/>
			<path d="M1099.54,1113.74c-3.84,0-6.01-1.34-7.23-2.74c-2.06-2.37-2.33-6.09-0.7-9.71c2.43-5.37-1.84-15.76-3.08-18.55
				c-1.66,1.91-7.11,7.83-13.67,11.16c-3.91,1.99-5.66,0.81-6.36-0.07c-1.88-2.38-0.41-7.7,3.33-12.12
				c4.3-5.07,8.93-13.15,11.31-17.51c0.91-1.66,2.65-2.62,4.54-2.6l28.25,0.81c2.23,0.06,4.16,1.61,4.71,3.77
				c1.39,5.49,4.04,15.63,6.1,21.84c1.12,3.38,0.7,7.1-1.21,10.76c-3.23,6.17-10.06,11.19-18.76,13.76
				C1103.87,1113.39,1101.49,1113.74,1099.54,1113.74z M1088.76,1080.88l0.34,0.71c0.26,0.55,6.41,13.47,3.42,20.11
				c-1.47,3.26-1.27,6.57,0.54,8.64c2.33,2.67,7.1,3.11,13.43,1.23c8.31-2.46,15.1-7.42,18.16-13.26c1.79-3.42,2.18-6.87,1.15-9.98
				c-2.07-6.25-4.73-16.41-6.12-21.91c-0.44-1.72-1.99-2.96-3.77-3.02l-28.25-0.81c-1.52-0.04-2.91,0.75-3.63,2.08
				c-2.4,4.4-7.07,12.54-11.42,17.68c-3.8,4.48-4.68,9.13-3.31,10.86c0.88,1.11,2.7,1.04,5.12-0.2c7.66-3.89,13.8-11.43,13.86-11.51
				L1088.76,1080.88z"/>
		</g>
		<path d="M1099.54,1114.15c-4,0-6.27-1.41-7.55-2.88c-2.17-2.49-2.46-6.38-0.76-10.15c2.21-4.89-1.36-14.2-2.82-17.61
			c-2.05,2.31-7.15,7.6-13.36,10.76c-4.17,2.12-6.1,0.8-6.87-0.18c-2.03-2.57-0.59-8,3.34-12.65c4.27-5.03,8.89-13.09,11.26-17.44
			c0.98-1.8,2.9-2.85,4.92-2.82l28.25,0.81c2.41,0.07,4.51,1.75,5.1,4.08c1.39,5.47,4.03,15.58,6.1,21.82
			c1.16,3.48,0.73,7.32-1.24,11.08c-3.28,6.27-10.21,11.36-19.01,13.97C1103.95,1113.8,1101.53,1114.15,1099.54,1114.15z
			 M1088.85,1080.11l0.63,1.3c0.27,0.55,6.49,13.65,3.42,20.46c-1.41,3.11-1.22,6.25,0.47,8.2c2.22,2.54,6.83,2.94,13,1.11
			c8.21-2.43,14.9-7.31,17.91-13.06c1.73-3.31,2.12-6.65,1.12-9.66c-2.09-6.29-4.74-16.45-6.13-21.94
			c-0.39-1.55-1.78-2.66-3.38-2.71l-28.25-0.81c-1.38-0.1-2.61,0.68-3.26,1.87c-2.41,4.42-7.1,12.59-11.47,17.75
			c-3.55,4.19-4.57,8.72-3.3,10.33c0.72,0.92,2.4,0.81,4.61-0.31c7.59-3.86,13.66-11.33,13.72-11.4L1088.85,1080.11z"/>
	</g>
	<g>
		<path class="st0" d="M1127.08,1027.07c-9.82,4.19-25.29,6.17-26.49,0.03c-1.66-8.44-6.31-35.17-5.6-44.95
			c0.52-7.14,18.68-14.59,28.41-18.08C1126.17,982.85,1128.37,1005.92,1127.08,1027.07z"/>
		<path d="M1109.16,1031.9c-2.74,0-5.12-0.39-6.8-1.28c-1.49-0.79-2.38-1.92-2.66-3.35c-1.68-8.59-6.33-35.33-5.61-45.19
			c0.53-7.18,16.07-14.23,29.01-18.88l1.05-0.38l0.16,1.11c3.53,24.03,4.77,45.29,3.68,63.2l-0.03,0.56l-0.52,0.22
			C1122.01,1030.23,1114.84,1031.9,1109.16,1031.9z M1122.67,965.3c-16.68,6.1-26.41,12.24-26.75,16.91
			c-0.71,9.66,3.91,36.18,5.58,44.71c0.17,0.88,0.74,1.56,1.72,2.09c4.44,2.35,15.32,0.59,22.99-2.56
			C1127.21,1009.07,1126.02,988.5,1122.67,965.3z"/>
	</g>
	<g>
		<g>
			<circle class="st1" cx="1114.19" cy="984.19" r="3.96"/>
			<path d="M1114.19,988.65c-0.76,0-1.51-0.2-2.19-0.58c-1.04-0.59-1.78-1.54-2.1-2.69c-0.32-1.15-0.17-2.35,0.42-3.39
				c1.21-2.14,3.94-2.9,6.08-1.68c1.04,0.59,1.78,1.54,2.1,2.69c0.32,1.15,0.17,2.35-0.42,3.39c-0.59,1.04-1.54,1.78-2.69,2.1
				C1114.99,988.6,1114.59,988.65,1114.19,988.65z M1114.2,980.73c-0.31,0-0.62,0.04-0.93,0.13c-0.89,0.25-1.63,0.83-2.09,1.63
				c-0.46,0.8-0.57,1.74-0.32,2.63c0.25,0.89,0.83,1.63,1.63,2.09c0.8,0.46,1.74,0.57,2.63,0.32s1.63-0.83,2.09-1.63v0
				c0.46-0.8,0.57-1.74,0.32-2.63c-0.25-0.89-0.83-1.63-1.63-2.09C1115.37,980.88,1114.79,980.73,1114.2,980.73z"/>
		</g>
		<g>
			<circle class="st1" cx="1115.83" cy="1017.49" r="3.96"/>
			<path d="M1115.83,1021.95c-0.75,0-1.5-0.19-2.19-0.58c-2.14-1.21-2.89-3.94-1.68-6.08c1.21-2.14,3.94-2.9,6.08-1.68
				c2.14,1.21,2.89,3.94,1.68,6.08v0C1118.89,1021.14,1117.38,1021.95,1115.83,1021.95z M1115.84,1014.03
				c-1.21,0-2.38,0.63-3.02,1.75c-0.94,1.66-0.36,3.78,1.3,4.72c1.66,0.94,3.78,0.36,4.72-1.31c0.94-1.66,0.35-3.78-1.31-4.72
				C1117,1014.18,1116.42,1014.03,1115.84,1014.03z"/>
		</g>
	</g>
	<g>
		<g>
			<path class="st1" d="M962.02,1113.19h-30.79c-6.25,0-11.32-6.05-11.32-13.51c0-0.29,0-0.59,0.04-0.88
				c0.68,0.42,1.37,0.8,2.08,1.17c2.4,1.21,4.7,1.83,6.84,1.83c4.1,0,7.53-2.16,9.2-5.78c1.3-2.82,1.35-6.29,0.27-9.86h12.38v2.93
				C950.72,1098.77,955.11,1107.43,962.02,1113.19z"/>
			<path d="M963.4,1113.69h-32.17c-6.52,0-11.82-6.29-11.82-14.01c0-0.31,0-0.63,0.04-0.94l0.1-0.78l0.66,0.41
				c0.61,0.38,1.28,0.76,2.05,1.15c2.33,1.18,4.56,1.77,6.61,1.77c3.9,0,7.16-2.05,8.74-5.49c1.22-2.64,1.31-6.01,0.25-9.5
				l-0.2-0.64h13.55v3.42c0,9.18,4.05,17.83,11.12,23.71L963.4,1113.69z M920.42,1099.66c0,0.01,0,0.01,0,0.02
				c0,7.17,4.85,13.01,10.82,13.01h29.45c-6.67-6.04-10.46-14.57-10.46-23.6v-2.42h-11.22c0.93,3.49,0.76,6.87-0.48,9.56
				c-1.75,3.8-5.35,6.07-9.65,6.07c-2.21,0-4.58-0.63-7.06-1.88C921.31,1100.16,920.85,1099.91,920.42,1099.66z"/>
		</g>
		<path d="M964.55,1114.11h-33.32c-6.74,0-12.23-6.47-12.23-14.43c0-0.33,0-0.66,0.04-0.99l0.17-1.42l1.22,0.76
			c0.66,0.41,1.33,0.78,2.02,1.14c2.28,1.14,4.44,1.73,6.42,1.73c3.73,0,6.86-1.96,8.37-5.25c1.17-2.55,1.26-5.82,0.23-9.21
			l-0.36-1.18h14.52v3.84c0,9.06,4,17.58,10.97,23.4L964.55,1114.11z M920.85,1100.38c0.3,6.62,4.84,11.9,10.39,11.9h28.4
			c-6.27-6.07-9.83-14.39-9.83-23.18v-2.01h-10.27c0.8,3.4,0.58,6.68-0.64,9.32c-2.74,5.96-9.74,8.17-17.28,4.38
			C921.36,1100.66,921.1,1100.52,920.85,1100.38z"/>
	</g>
	<g>
		<g>
			<path class="st1" d="M1075.88,1100.87c-0.22,3.25-1.44,6.18-3.27,8.36c-2.05,2.45-4.88,3.97-8.01,3.97h-26.62
				c6.91-5.76,11.3-14.43,11.3-24.1v-2.93h12.4c-1.12,3.57-1.06,7.04,0.24,9.86c1.68,3.62,5.12,5.78,9.2,5.78
				C1072.63,1101.8,1074.23,1101.49,1075.88,1100.87z"/>
			<path d="M1064.6,1113.69h-28l1.06-0.88c7.07-5.89,11.12-14.53,11.12-23.71v-3.42h13.58l-0.2,0.65c-1.09,3.47-1.01,6.84,0.21,9.5
				c2.2,4.74,7.59,6.76,13.34,4.59l0.73-0.28l-0.05,0.78c-0.22,3.23-1.42,6.3-3.39,8.64
				C1070.76,1112.22,1067.78,1113.69,1064.6,1113.69z M1039.31,1112.69h25.29c2.88,0,5.58-1.34,7.62-3.79
				c1.68-2,2.76-4.57,3.09-7.31c-5.96,1.93-11.53-0.36-13.85-5.37c-1.25-2.71-1.41-6.09-0.45-9.57h-11.23v2.42
				C1049.78,1098.12,1045.98,1106.65,1039.31,1112.69z"/>
		</g>
		<path d="M1064.6,1114.11h-29.15l1.94-1.62c6.97-5.81,10.97-14.34,10.97-23.4v-3.84h14.55l-0.37,1.19
			c-1.06,3.37-0.99,6.64,0.19,9.2c2.11,4.53,7.25,6.47,12.82,4.37l1.33-0.5l-0.09,1.42c-0.22,3.32-1.46,6.47-3.49,8.88
			C1070.99,1112.58,1067.9,1114.11,1064.6,1114.11z M1040.36,1112.28h24.24c2.75,0,5.34-1.29,7.31-3.64c1.5-1.78,2.51-4.04,2.9-6.46
			c-5.95,1.67-11.39-0.76-13.73-5.77c-1.23-2.66-1.44-5.94-0.61-9.33h-10.28v2.01C1050.19,1097.89,1046.64,1106.21,1040.36,1112.28z
			"/>
	</g>
	<g>
		<g>
			<path class="st1" d="M1026.43,984.11h-52.86c-8.58,0-15.53,6.95-15.53,15.53v89.44c0,13.31,10.79,24.1,24.1,24.1h35.72
				c13.31,0,24.1-10.79,24.1-24.1v-89.44C1041.97,991.07,1035.01,984.11,1026.43,984.11z"/>
			<path d="M1017.86,1113.69h-35.72c-13.57,0-24.6-11.04-24.6-24.6v-89.44c0-8.84,7.19-16.03,16.03-16.03h52.86
				c8.84,0,16.03,7.19,16.03,16.03v89.44C1042.47,1102.66,1031.43,1113.69,1017.86,1113.69z M973.57,984.61
				c-8.29,0-15.03,6.74-15.03,15.03v89.44c0,13.01,10.59,23.6,23.6,23.6h35.72c13.01,0,23.6-10.59,23.6-23.6v-89.44
				c0-8.29-6.74-15.03-15.03-15.03H973.57z"/>
		</g>
		<path d="M1017.86,1114.11h-35.72c-13.8,0-25.02-11.22-25.02-25.02v-89.44c0-9.07,7.38-16.45,16.45-16.45h52.86
			c9.07,0,16.45,7.38,16.45,16.45v89.44C1042.88,1102.89,1031.66,1114.11,1017.86,1114.11z M973.57,985.03
			c-8.06,0-14.62,6.56-14.62,14.62v89.44c0,12.79,10.4,23.19,23.19,23.19h35.72c12.79,0,23.19-10.4,23.19-23.19v-89.44
			c0-8.06-6.56-14.62-14.62-14.62H973.57z"/>
	</g>
	<g>
		<circle class="st0" cx="985.78" cy="1018.29" r="14.23"/>
		<g>
			<path class="st1" d="M977.2,1019.92c-0.9,0-1.63-0.73-1.63-1.63c0-5.63,4.58-10.2,10.2-10.2c0.9,0,1.63,0.73,1.63,1.63
				c0,0.9-0.73,1.63-1.63,1.63c-3.83,0-6.94,3.11-6.94,6.94C978.83,1019.19,978.1,1019.92,977.2,1019.92z"/>
			<path d="M977.2,1020.42c-1.17,0-2.13-0.96-2.13-2.13c0-5.9,4.8-10.7,10.7-10.7c1.17,0,2.13,0.96,2.13,2.13
				c0,1.17-0.96,2.13-2.13,2.13c-3.55,0-6.44,2.89-6.44,6.44C979.33,1019.46,978.38,1020.42,977.2,1020.42z M985.78,1008.58
				c-5.35,0-9.7,4.35-9.7,9.7c0,0.62,0.51,1.13,1.13,1.13s1.13-0.51,1.13-1.13c0-4.1,3.34-7.44,7.44-7.44
				c0.62,0,1.13-0.51,1.13-1.13S986.4,1008.58,985.78,1008.58z"/>
		</g>
	</g>
	<g>
		<path class="st0" d="M989.19,1088.96h-5.41c-2.87,0-5.2,2.33-5.2,5.2c0,2.87,2.33,5.2,5.2,5.2h5.41c2.87,0,5.2-2.33,5.2-5.2
			C994.39,1091.29,992.07,1088.96,989.19,1088.96z"/>
		<path class="st0" d="M1016.22,1088.96h-5.41c-2.87,0-5.2,2.33-5.2,5.2c0,2.87,2.33,5.2,5.2,5.2h5.41c2.87,0,5.2-2.33,5.2-5.2
			C1021.42,1091.29,1019.09,1088.96,1016.22,1088.96z"/>
	</g>
	<g>
		<path class="st0" d="M947.6,1180.11c-0.85,15.1-13.33,23.87-27.54,28.97c0.01-0.73,0.02-1.48,0.03-2.23
			c0.01-0.86,0.02-1.74,0.04-2.63c0.22-13.84,0.65-31,1.54-44.33c0.07-0.99,0.13-1.97,0.21-2.91c0.32-4.16,0.67-7.87,1.1-10.84
			C935.9,1151.8,948.64,1162,947.6,1180.11z"/>
		<path d="M919.13,1210.39l0.05-3.55c0.01-0.91,0.02-1.77,0.04-2.64c0.29-18.43,0.81-33.36,1.55-44.37l0.01-0.2
			c0.06-0.92,0.12-1.84,0.19-2.72c0.34-4.53,0.7-8.09,1.1-10.9l0.17-1.19l1.1,0.48c17.33,7.6,26.03,19.66,25.16,34.87l0,0
			c-0.75,13.32-10.22,23.34-28.14,29.77L919.13,1210.39z M923.73,1147.47c-0.33,2.56-0.64,5.71-0.93,9.58
			c-0.07,0.88-0.13,1.79-0.19,2.7l-0.01,0.2c-0.73,10.98-1.25,25.88-1.54,44.28c-0.02,0.88-0.03,1.73-0.04,2.57l-0.01,0.96
			c16.36-6.17,25.01-15.48,25.69-27.7l0,0C947.5,1165.8,939.78,1154.84,923.73,1147.47z"/>
	</g>
	<g>
		<circle class="st1" cx="933.86" cy="1177.08" r="3.96"/>
		<path d="M933.86,1181.54c-2.46,0-4.46-2-4.46-4.46s2-4.46,4.46-4.46s4.46,2,4.46,4.46S936.32,1181.54,933.86,1181.54z
			 M933.86,1173.62c-1.91,0-3.46,1.55-3.46,3.46s1.55,3.46,3.46,3.46s3.46-1.55,3.46-3.46S935.77,1173.62,933.86,1173.62z"/>
	</g>
	<g>
		<g>
			<g>
				<path class="st1" d="M993.28,1120.8c0.87,2.06,1.72,4.4,2.53,7.07c7.17,23.38,22.41,100.7,22.41,100.7s34.08,10.79,61.87,0
					c0,0,0-4.45-0.07-11.36l-2.65-0.96c-25.79-9.25-31.95-24.52-32.58-35.7c-1.04-18.26,9.05-32.57,29.16-41.38l1.24-0.54
					c-0.89-2.28-2.25-6.09-3.9-10.85c-1.45-4.16-5.37-6.97-9.79-6.97H993.28z"/>
				<path d="M1051.78,1233.83c-18.28,0-33.48-4.71-33.71-4.78l-0.28-0.09l-0.06-0.29c-0.15-0.77-15.32-77.56-22.4-100.65
					c-0.79-2.58-1.63-4.94-2.52-7.02l-0.29-0.7h68.99c4.62,0,8.74,2.94,10.26,7.31c1.79,5.16,3.06,8.7,3.9,10.83l0.17,0.45
					l-1.68,0.74c-19.91,8.73-29.89,22.87-28.86,40.9c0.62,11.03,6.72,26.1,32.25,35.25l2.98,1.08l0,0.35
					c0.07,6.92,0.07,11.37,0.07,11.37v0.34l-0.32,0.12C1071.01,1232.63,1061,1233.83,1051.78,1233.83z M1018.66,1228.18
					c3.31,0.99,35.01,9.93,60.94,0.05c0-1.14-0.01-5.06-0.06-10.67l-2.33-0.84c-26.04-9.34-32.27-24.81-32.91-36.14
					c-1.06-18.48,9.13-32.96,29.46-41.87l0.8-0.35c-0.84-2.18-2.06-5.6-3.74-10.42c-1.38-3.97-5.12-6.63-9.31-6.63h-67.48
					c0.79,1.94,1.55,4.09,2.26,6.42C1003.16,1150.13,1017.61,1222.92,1018.66,1228.18z"/>
			</g>
			<path d="M1051.79,1234.24c-18.36,0-33.61-4.73-33.84-4.8l-0.52-0.16l-0.1-0.53c-0.15-0.77-15.32-77.54-22.39-100.61
				c-0.79-2.57-1.63-4.92-2.5-6.98l-0.54-1.27h69.61c4.79,0,9.07,3.05,10.65,7.59c1.79,5.16,3.07,8.7,3.89,10.82l0.32,0.82
				l-2.04,0.9c-19.74,8.65-29.64,22.66-28.62,40.49c0.62,10.9,6.66,25.81,31.97,34.89l3.25,1.17l0.01,0.64
				c0.07,6.92,0.07,11.37,0.07,11.37v0.63l-0.58,0.22C1071.11,1233.03,1061.05,1234.24,1051.79,1234.24z M1019.01,1227.85
				c4.32,1.26,34.94,9.56,60.17,0.09c0-1.4-0.01-5.04-0.06-10.09l-2.06-0.74c-26.25-9.42-32.53-25.05-33.18-36.51
				c-1.07-18.67,9.2-33.28,29.71-42.27l0.44-0.19c-0.83-2.18-2.01-5.49-3.6-10.07c-1.32-3.8-4.9-6.36-8.92-6.36h-66.87
				c0.71,1.8,1.4,3.77,2.05,5.89C1003.47,1149.73,1017.63,1220.9,1019.01,1227.85z"/>
		</g>
		<g>
			<g>
				<path class="st1" d="M1080.09,1237.91c0,0,28.92,17.31,27.12,35.96s-70.16,10.11-80.48,9.22s-17.93-19.55-7.85-45.18
					C1018.9,1237.91,1050.95,1252.29,1080.09,1237.91z"/>
				<path d="M1069.12,1286.31c-15.33,0-31.15-1.6-38.9-2.38c-1.5-0.15-2.7-0.27-3.52-0.34c-3.49-0.3-6.71-2.56-9.06-6.35
					c-4.36-7.05-6.45-21.13,0.79-39.51l0.19-0.49l0.48,0.21c0.32,0.14,32.19,14.12,60.77,0.01l0.25-0.12l0.23,0.14
					c1.19,0.71,29.17,17.68,27.37,36.44c-0.21,2.22-1.33,4.17-3.31,5.8C1098.18,1284.82,1083.87,1286.31,1069.12,1286.31z
					 M1019.18,1238.57c-6.88,17.8-4.88,31.36-0.68,38.14c2.17,3.51,5.12,5.6,8.29,5.88c0.83,0.07,2.03,0.19,3.54,0.35
					c15.1,1.53,61.08,6.17,73.45-3.99c1.77-1.45,2.76-3.18,2.95-5.12c1.66-17.25-23.94-33.66-26.65-35.34
					C1053.06,1251.65,1023.31,1240.27,1019.18,1238.57z"/>
			</g>
			<path d="M1069.05,1286.71c-15.34,0-31.13-1.6-38.88-2.38c-1.49-0.15-2.68-0.27-3.5-0.34c-3.63-0.32-6.95-2.64-9.37-6.54
				c-4.42-7.14-6.54-21.36,0.76-39.88l0.35-0.89l0.87,0.39c0.32,0.14,32.01,14.03,60.42,0.01l0.45-0.22l0.43,0.26
				c1.2,0.72,29.39,17.82,27.57,36.83c-0.22,2.33-1.39,4.38-3.46,6.08C1098.35,1285.22,1083.91,1286.71,1069.05,1286.71z
				 M1019.41,1239.11c-6.65,17.46-4.68,30.73-0.56,37.38c2.11,3.4,4.94,5.42,7.97,5.68c0.83,0.07,2.02,0.19,3.53,0.34
				c15.06,1.52,60.91,6.15,73.16-3.89c1.71-1.4,2.62-2.99,2.8-4.84c1.6-16.66-22.75-32.62-26.27-34.83
				C1053.68,1251.68,1024.8,1241.27,1019.41,1239.11z"/>
		</g>
	</g>
	<g>
		<path class="st0" d="M1052.4,1180.11c0.85,15.1,13.33,23.87,27.54,28.97c-0.01-0.73-0.02-1.48-0.03-2.23
			c-0.01-0.86-0.02-1.74-0.04-2.63c-0.22-13.84-0.65-31-1.54-44.33c-0.07-0.99-0.13-1.97-0.21-2.91c-0.32-4.16-0.67-7.87-1.1-10.84
			C1064.1,1151.8,1051.36,1162,1052.4,1180.11z"/>
		<path d="M1080.87,1210.39l-1.24-0.45c-17.93-6.43-27.4-16.45-28.14-29.77c-0.87-15.21,7.83-27.27,25.16-34.87l1.1-0.48l0.17,1.19
			c0.4,2.8,0.76,6.37,1.11,10.9c0.07,0.88,0.13,1.8,0.19,2.72l0.01,0.2c0.74,11.01,1.26,25.94,1.55,44.38
			c0.02,0.87,0.03,1.73,0.04,2.57L1080.87,1210.39z M1076.27,1147.47c-16.05,7.37-23.78,18.33-22.96,32.59l0,0
			c0.69,12.22,9.33,21.53,25.69,27.7l-0.01-0.9c-0.01-0.9-0.02-1.76-0.04-2.62c-0.29-18.41-0.81-33.31-1.54-44.29l-0.01-0.2
			c-0.06-0.92-0.12-1.82-0.19-2.7C1076.91,1153.18,1076.6,1150.03,1076.27,1147.47z"/>
	</g>
	<g>
		<circle class="st1" cx="1066.14" cy="1177.08" r="3.96"/>
		<path d="M1066.14,1181.54c-2.46,0-4.46-2-4.46-4.46s2-4.46,4.46-4.46s4.46,2,4.46,4.46S1068.6,1181.54,1066.14,1181.54z
			 M1066.14,1173.62c-1.91,0-3.46,1.55-3.46,3.46s1.55,3.46,3.46,3.46s3.46-1.55,3.46-3.46S1068.05,1173.62,1066.14,1173.62z"/>
	</g>
</g>
</svg>
